<?xml version="1.0" encoding="UTF-8" standalone="no"?>
<!-- Created with Inkscape (http://www.inkscape.org/) -->

<svg
   xmlns:dc="http://purl.org/dc/elements/1.1/"
   xmlns:cc="http://creativecommons.org/ns#"
   xmlns:rdf="http://www.w3.org/1999/02/22-rdf-syntax-ns#"
   xmlns:svg="http://www.w3.org/2000/svg"
   xmlns="http://www.w3.org/2000/svg"
   xmlns:sodipodi="http://sodipodi.sourceforge.net/DTD/sodipodi-0.dtd"
   xmlns:inkscape="http://www.inkscape.org/namespaces/inkscape"
   width="20"
   height="20"
   viewBox="0 0 5.8208332 5.8208335"
   version="1.1"
   id="svg8"
   inkscape:version="0.92.5 (2060ec1f9f, 2020-04-08)"
   sodipodi:docname="readmaker.svg">
  <defs
     id="defs2" />
  <sodipodi:namedview
     id="base"
     pagecolor="#ffffff"
     bordercolor="#666666"
     borderopacity="1.0"
     inkscape:pageopacity="0.0"
     inkscape:pageshadow="2"
     inkscape:zoom="22.474623"
     inkscape:cx="11.562012"
     inkscape:cy="5.2304229"
     inkscape:document-units="mm"
     inkscape:current-layer="layer1"
     showgrid="false"
     inkscape:window-width="1920"
     inkscape:window-height="1016"
     inkscape:window-x="0"
     inkscape:window-y="27"
     inkscape:window-maximized="1"
     units="px"
     showguides="true"
     inkscape:guide-bbox="true" />
  <metadata
     id="metadata5">
    <rdf:RDF>
      <cc:Work
         rdf:about="">
        <dc:format>image/svg+xml</dc:format>
        <dc:type
           rdf:resource="http://purl.org/dc/dcmitype/StillImage" />
        <dc:title></dc:title>
      </cc:Work>
    </rdf:RDF>
  </metadata>
  <g
     inkscape:label="Capa 1"
     inkscape:groupmode="layer"
     id="layer1"
     transform="translate(0,-291.17915)">
    <g
       id="g4705"
       transform="matrix(0.94707062,0,0,0.94707062,5.9545368,15.234638)">
      <path
         id="rect903"
         transform="matrix(0.29104167,0,0,0.29104167,0,291.17915)"
         d="m -17.689453,1.6992188 c -0.277005,0 -0.5,0.2229949 -0.5,0.5 V 20.205078 c 0,0.276936 0.222991,0.5 0.5,0.5 h 13.2910155 c 0.277005,0 0.5,-0.222995 0.5,-0.5 V 6.640625 L -8.5292969,2.0078125 -8.8378906,1.6992188 Z"
         style="opacity:1;fill:#ff6600;fill-opacity:1;fill-rule:nonzero;stroke:none;stroke-width:14.00000095;stroke-linecap:round;stroke-miterlimit:4;stroke-dasharray:none;stroke-dashoffset:0;stroke-opacity:1"
         inkscape:connector-curvature="0" />
      <path
         inkscape:connector-curvature="0"
         id="rect915"
         d="m -1.1346183,293.1118 -0.0898,-0.0898 -1.34777,-1.34834 v 1.29264 c 0,0.0806 0.0649,0.14551 0.14552,0.14551 z"
         style="opacity:1;fill:#aa4400;fill-opacity:1;fill-rule:nonzero;stroke:none;stroke-width:4.07458353;stroke-linecap:round;stroke-miterlimit:4;stroke-dasharray:none;stroke-dashoffset:0;stroke-opacity:1" />
      <path
         id="rect926"
         transform="matrix(0.29104167,0,0,0.29104167,0,291.17915)"
         d="m -16.519531,3.8867188 c -0.1662,0 -0.298828,0.1326373 -0.298828,0.296875 0,0.1642376 0.132628,0.296875 0.298828,0.296875 h 7.4355466 v -0.59375 z"
         style="opacity:1;fill:#ffffff;fill-opacity:1;fill-rule:nonzero;stroke:none;stroke-width:14.00000095;stroke-linecap:round;stroke-miterlimit:4;stroke-dasharray:none;stroke-dashoffset:0;stroke-opacity:1"
         inkscape:connector-curvature="0" />
      <path
         id="rect930"
         transform="matrix(0.29104167,0,0,0.29104167,0,291.17915)"
         d="m -16.519531,5.7773438 c -0.1662,0 -0.298828,0.1325415 -0.298828,0.296875 0,0.1643334 0.132628,0.296875 0.298828,0.296875 h 7.441406 c -7.151e-4,-0.011535 -0.00586,-0.021481 -0.00586,-0.033203 v -0.560547 z"
         style="opacity:1;fill:#ffffff;fill-opacity:1;fill-rule:nonzero;stroke:none;stroke-width:14.00000095;stroke-linecap:round;stroke-miterlimit:4;stroke-dasharray:none;stroke-dashoffset:0;stroke-opacity:1"
         inkscape:connector-curvature="0" />
      <path
         inkscape:connector-curvature="0"
         id="path932"
         d="m -3.2548919,293.84912 a 1.018708,1.018708 0 0 0 -1.0186458,1.01864 1.018708,1.018708 0 0 0 1.0186458,1.01865 1.018708,1.018708 0 0 0 1.0186459,-1.01865 1.018708,1.018708 0 0 0 -1.0186459,-1.01864 z m -0.017899,0.18372 c 0.041179,0 0.075631,0.014 0.1037072,0.0421 0.028077,0.0281 0.042115,0.0618 0.042115,0.10107 0,0.0412 -0.014038,0.0757 -0.042115,0.10371 -0.026205,0.0262 -0.060657,0.0395 -0.1037072,0.0395 -0.044922,0 -0.0799,-0.0161 -0.1042336,-0.0479 -0.024333,-0.0318 -0.036324,-0.0634 -0.036324,-0.0953 0,-0.0337 0.01047,-0.0638 0.031059,-0.09 0.028076,-0.0356 0.064576,-0.0532 0.1094978,-0.0532 z m 0.1316079,0.37798 0.011582,0.008 v 0.99654 c 0,0.0992 0.011231,0.16506 0.033692,0.19688 0.024333,0.0318 0.082006,0.0474 0.1737226,0.0474 v 0.0421 l -0.6654101,5.2e-4 v -0.0421 c 0.091716,0 0.1519634,-0.0141 0.1800398,-0.0421 0.028077,-0.0281 0.042115,-0.0955 0.042115,-0.20215 v -0.65172 c 0,-0.073 -0.01047,-0.12148 -0.031059,-0.14582 -0.013103,-0.0149 -0.035563,-0.0226 -0.067383,-0.0226 -0.018717,0 -0.033516,10e-4 -0.044747,0.003 -0.00936,0 -0.03182,0.002 -0.067383,0.008 v -0.0421 c 0.087973,-0.0281 0.1596844,-0.0521 0.215837,-0.0726 0.097331,-0.0374 0.1703302,-0.0648 0.2189957,-0.0816 z"
         style="opacity:1;fill:#ffffff;fill-opacity:1;fill-rule:nonzero;stroke:none;stroke-width:3.77346444;stroke-linecap:round;stroke-miterlimit:4;stroke-dasharray:none;stroke-dashoffset:0;stroke-opacity:1" />
      <rect
         ry="0.087312497"
         rx="0.087312497"
         y="293.41049"
         x="-4.895021"
         height="0.17266388"
         width="3.2201815"
         id="rect4651"
         style="opacity:1;fill:#ffffff;fill-opacity:1;fill-rule:nonzero;stroke:none;stroke-width:4.07458353;stroke-linecap:round;stroke-miterlimit:4;stroke-dasharray:none;stroke-dashoffset:0;stroke-opacity:1" />
      <path
         transform="matrix(0.29104167,0,0,0.29104167,0,291.17915)"
         id="rect4653"
         d="m -16.519531,9.5566406 c -0.1662,0 -0.298828,0.1325415 -0.298828,0.296875 0,0.1643334 0.132628,0.2968754 0.298828,0.2968754 h 2.236328 A 4.0000001,4.0000001 0 0 1 -13.6875,9.5566406 Z m 7.8359372,0 a 4.0000001,4.0000001 0 0 1 0.5996094,0.5937504 h 2.0292969 c 0.1662,0 0.3007813,-0.132542 0.3007813,-0.2968754 -10e-8,-0.1643335 -0.1345813,-0.296875 -0.3007813,-0.296875 z"
         style="opacity:1;fill:#ffffff;fill-opacity:1;fill-rule:nonzero;stroke:none;stroke-width:14.00000095;stroke-linecap:round;stroke-miterlimit:4;stroke-dasharray:none;stroke-dashoffset:0;stroke-opacity:1"
         inkscape:connector-curvature="0" />
      <path
         id="rect4655"
         transform="matrix(0.29104167,0,0,0.29104167,0,291.17915)"
         d="m -16.519531,11.447266 c -0.1662,0 -0.298828,0.130588 -0.298828,0.294922 0,0.164333 0.132628,0.296874 0.298828,0.296874 h 1.390625 a 4.0000001,4.0000001 0 0 1 0.138672,-0.591796 z m 9.1386716,0 a 4.0000001,4.0000001 0 0 1 0.1445313,0.591796 h 1.1816406 c 0.1662,0 0.3007813,-0.132541 0.3007813,-0.296874 -10e-8,-0.164334 -0.1345813,-0.294922 -0.3007813,-0.294922 z"
         style="opacity:1;fill:#ffffff;fill-opacity:1;fill-rule:nonzero;stroke:none;stroke-width:14.00000095;stroke-linecap:round;stroke-miterlimit:4;stroke-dasharray:none;stroke-dashoffset:0;stroke-opacity:1"
         inkscape:connector-curvature="0" />
      <path
         id="rect4657"
         transform="matrix(0.29104167,0,0,0.29104167,0,291.17915)"
         d="m -16.519531,13.335938 c -0.1662,0 -0.298828,0.132541 -0.298828,0.296874 0,0.164334 0.132628,0.296876 0.298828,0.296876 h 1.542969 a 4.0000001,4.0000001 0 0 1 -0.150391,-0.59375 z m 9.2753904,0 a 4.0000001,4.0000001 0 0 1 -0.1445313,0.59375 h 1.3339844 c 0.1662,0 0.3007813,-0.132542 0.3007813,-0.296876 -10e-8,-0.164333 -0.1345813,-0.296874 -0.3007813,-0.296874 z"
         style="opacity:1;fill:#ffffff;fill-opacity:1;fill-rule:nonzero;stroke:none;stroke-width:14.00000095;stroke-linecap:round;stroke-miterlimit:4;stroke-dasharray:none;stroke-dashoffset:0;stroke-opacity:1"
         inkscape:connector-curvature="0" />
      <path
         id="rect4659"
         transform="matrix(0.29104167,0,0,0.29104167,0,291.17915)"
         d="m -16.519531,15.226562 c -0.1662,0 -0.298828,0.132542 -0.298828,0.296876 0,0.164333 0.132628,0.294921 0.298828,0.294921 h 2.873047 a 4.0000001,4.0000001 0 0 1 -0.611328,-0.591797 z m 8.4121091,0 a 4.0000001,4.0000001 0 0 1 -0.6054687,0.591797 h 2.6582031 c 0.1662,0 0.3007813,-0.130588 0.3007813,-0.294921 -10e-8,-0.164334 -0.1345813,-0.296876 -0.3007813,-0.296876 z"
         style="opacity:1;fill:#ffffff;fill-opacity:1;fill-rule:nonzero;stroke:none;stroke-width:14.00000095;stroke-linecap:round;stroke-miterlimit:4;stroke-dasharray:none;stroke-dashoffset:0;stroke-opacity:1"
         inkscape:connector-curvature="0" />
      <rect
         style="opacity:1;fill:#ffffff;fill-opacity:1;fill-rule:nonzero;stroke:none;stroke-width:4.07458353;stroke-linecap:round;stroke-miterlimit:4;stroke-dasharray:none;stroke-dashoffset:0;stroke-opacity:1"
         id="rect4661"
         width="3.2201815"
         height="0.17266388"
         x="-4.895021"
         y="296.16049"
         rx="0.087312497"
         ry="0.087312497" />
    </g>
  </g>
</svg>
